<svg xmlns="http://www.w3.org/2000/svg" viewBox="0 0 680 424" role="img"
     aria-label="Two stacked grids comparing batching regimes, four batch slots by twelve decode iterations each, from Orca OSDI 2022. Top panel, request-level batching — the batch is one unit of work: requests R1 through R4 occupy the four slots. R1 generates from iteration t1 to t4, R2 through t7, R3 through t9, R4 runs all twelve iterations. After a request finishes, its slot sits idle — drawn as hatched grey cells — until the whole batch completes at t12: R1 idles for eight iterations, R2 for five, R3 for three. A queued request R5 sits outside the batch in a chip labeled R5 queued, annotated waits until t12. Bottom panel, iteration-level scheduling — the batch is re-formed every iteration: the same four slots, but the moment a request finishes, its slot is refilled on the next iteration. R5 takes over R1's slot at t5 and generates t5 to t12, R6 takes R2's slot at t8, R7 takes R3's slot at t10; R4 runs t1 to t12 as before. An arrow at the R1-to-R5 boundary is labeled finished, then slot refilled on the next iteration. There are no idle cells — the batch stays full. Footnote: Orca, OSDI 2022 — iteration-level scheduling: the scheduler runs one iteration, then re-forms the batch.">
  <title>Request-level vs iteration-level scheduling — Orca (OSDI '22)</title>
  <style>
    .bg    { fill:#ffffff; stroke:#e6e6e6; }
    .ey    { font:600 12px 'JetBrains Mono',ui-monospace,monospace; letter-spacing:1.5px; fill:#006b40; }
    .stg   { font:600 11px 'JetBrains Mono',ui-monospace,monospace; letter-spacing:1px; fill:#006b40; }
    .subin { font:400 10px 'JetBrains Mono',ui-monospace,monospace; fill:#5c6670; }
    .tick  { font:400 9.5px 'JetBrains Mono',ui-monospace,monospace; fill:#5c6670; }
    .row   { font:600 10.5px 'JetBrains Mono',ui-monospace,monospace; fill:#14171a; }
    .rown  { fill:#006b40; }
    .cg    { fill:#e8f3ee; stroke:#006b40; stroke-width:1.1; }
    .cn    { fill:#cfe6da; stroke:#006b40; stroke-width:1.4; }
    .ci    { fill:url(#hatch); stroke:#d5d9d6; stroke-width:1; }
    .clbl  { font:700 10px 'JetBrains Mono',ui-monospace,monospace; fill:#006b40; }
    .chip  { fill:#ffffff; stroke:#14171a; }
    .chiptx{ font:600 11px 'JetBrains Mono',ui-monospace,monospace; fill:#14171a; }
    .thin  { stroke:#aab2ae; stroke-width:1.2; fill:none; }
    .arrg  { stroke:#006b40; stroke-width:1.2; fill:none; }
    .hair  { stroke:#e0e3e1; stroke-width:1; }
    .vs    { font:600 10px 'JetBrains Mono',ui-monospace,monospace; fill:#5c6670; }
    .anng  { font:400 10px 'JetBrains Mono',ui-monospace,monospace; fill:#006b40; }
    .ann2  { font:400 9.5px 'JetBrains Mono',ui-monospace,monospace; fill:#5c6670; }
    .note  { font:400 9.5px 'JetBrains Mono',ui-monospace,monospace; fill:#7a847f; }
  </style>
  <defs>
    <marker id="ag" markerWidth="8" markerHeight="8" refX="6" refY="3" orient="auto"><path d="M0,0 L6,3 L0,6 Z" fill="#006b40"/></marker>
    <marker id="agr" markerWidth="8" markerHeight="8" refX="6" refY="3" orient="auto"><path d="M0,0 L6,3 L0,6 Z" fill="#aab2ae"/></marker>
    <pattern id="hatch" width="5" height="5" patternUnits="userSpaceOnUse" patternTransform="rotate(45)">
      <rect width="5" height="5" fill="#fbfbfa"/>
      <line x1="0" y1="0" x2="0" y2="5" stroke="#dde2df" stroke-width="1.2"/>
    </pattern>
  </defs>

  <!-- GRID: GX=110, CW=34, 12 cols (right edge 518); RH=26; cells inset 2px h / 2.5px v.
       Top rows y=80..158; bottom rows y=274..352. Column k center = 110+(k-0.5)*34. -->

  <rect class="bg" x="1" y="1" width="678" height="422" rx="2"/>
  <text class="ey" x="34" y="30">REQUEST-LEVEL vs ITERATION-LEVEL SCHEDULING</text>

  <!-- ===== top panel: request-level batching ===== -->
  <text class="stg" x="34" y="56">REQUEST-LEVEL BATCHING<tspan class="subin" letter-spacing="0"> — the batch is one unit of work</tspan></text>

  <text class="tick" x="127" y="74" text-anchor="middle">t1</text>
  <text class="tick" x="161" y="74" text-anchor="middle">t2</text>
  <text class="tick" x="195" y="74" text-anchor="middle">t3</text>
  <text class="tick" x="229" y="74" text-anchor="middle">t4</text>
  <text class="tick" x="263" y="74" text-anchor="middle">t5</text>
  <text class="tick" x="297" y="74" text-anchor="middle">t6</text>
  <text class="tick" x="331" y="74" text-anchor="middle">t7</text>
  <text class="tick" x="365" y="74" text-anchor="middle">t8</text>
  <text class="tick" x="399" y="74" text-anchor="middle">t9</text>
  <text class="tick" x="433" y="74" text-anchor="middle">t10</text>
  <text class="tick" x="467" y="74" text-anchor="middle">t11</text>
  <text class="tick" x="501" y="74" text-anchor="middle">t12</text>
  <text class="row" x="102" y="97" text-anchor="end">R1</text>
  <text class="row" x="102" y="123" text-anchor="end">R2</text>
  <text class="row" x="102" y="149" text-anchor="end">R3</text>
  <text class="row" x="102" y="175" text-anchor="end">R4</text>

  <rect class="cg" x="112" y="82.5" width="30" height="21" rx="1.5"/>
  <rect class="cg" x="146" y="82.5" width="30" height="21" rx="1.5"/>
  <rect class="cg" x="180" y="82.5" width="30" height="21" rx="1.5"/>
  <rect class="cg" x="214" y="82.5" width="30" height="21" rx="1.5"/>
  <rect class="ci" x="248" y="82.5" width="30" height="21" rx="1.5"/>
  <rect class="ci" x="282" y="82.5" width="30" height="21" rx="1.5"/>
  <rect class="ci" x="316" y="82.5" width="30" height="21" rx="1.5"/>
  <rect class="ci" x="350" y="82.5" width="30" height="21" rx="1.5"/>
  <rect class="ci" x="384" y="82.5" width="30" height="21" rx="1.5"/>
  <rect class="ci" x="418" y="82.5" width="30" height="21" rx="1.5"/>
  <rect class="ci" x="452" y="82.5" width="30" height="21" rx="1.5"/>
  <rect class="ci" x="486" y="82.5" width="30" height="21" rx="1.5"/>
  <rect class="cg" x="112" y="108.5" width="30" height="21" rx="1.5"/>
  <rect class="cg" x="146" y="108.5" width="30" height="21" rx="1.5"/>
  <rect class="cg" x="180" y="108.5" width="30" height="21" rx="1.5"/>
  <rect class="cg" x="214" y="108.5" width="30" height="21" rx="1.5"/>
  <rect class="cg" x="248" y="108.5" width="30" height="21" rx="1.5"/>
  <rect class="cg" x="282" y="108.5" width="30" height="21" rx="1.5"/>
  <rect class="cg" x="316" y="108.5" width="30" height="21" rx="1.5"/>
  <rect class="ci" x="350" y="108.5" width="30" height="21" rx="1.5"/>
  <rect class="ci" x="384" y="108.5" width="30" height="21" rx="1.5"/>
  <rect class="ci" x="418" y="108.5" width="30" height="21" rx="1.5"/>
  <rect class="ci" x="452" y="108.5" width="30" height="21" rx="1.5"/>
  <rect class="ci" x="486" y="108.5" width="30" height="21" rx="1.5"/>
  <rect class="cg" x="112" y="134.5" width="30" height="21" rx="1.5"/>
  <rect class="cg" x="146" y="134.5" width="30" height="21" rx="1.5"/>
  <rect class="cg" x="180" y="134.5" width="30" height="21" rx="1.5"/>
  <rect class="cg" x="214" y="134.5" width="30" height="21" rx="1.5"/>
  <rect class="cg" x="248" y="134.5" width="30" height="21" rx="1.5"/>
  <rect class="cg" x="282" y="134.5" width="30" height="21" rx="1.5"/>
  <rect class="cg" x="316" y="134.5" width="30" height="21" rx="1.5"/>
  <rect class="cg" x="350" y="134.5" width="30" height="21" rx="1.5"/>
  <rect class="cg" x="384" y="134.5" width="30" height="21" rx="1.5"/>
  <rect class="ci" x="418" y="134.5" width="30" height="21" rx="1.5"/>
  <rect class="ci" x="452" y="134.5" width="30" height="21" rx="1.5"/>
  <rect class="ci" x="486" y="134.5" width="30" height="21" rx="1.5"/>
  <rect class="cg" x="112" y="160.5" width="30" height="21" rx="1.5"/>
  <rect class="cg" x="146" y="160.5" width="30" height="21" rx="1.5"/>
  <rect class="cg" x="180" y="160.5" width="30" height="21" rx="1.5"/>
  <rect class="cg" x="214" y="160.5" width="30" height="21" rx="1.5"/>
  <rect class="cg" x="248" y="160.5" width="30" height="21" rx="1.5"/>
  <rect class="cg" x="282" y="160.5" width="30" height="21" rx="1.5"/>
  <rect class="cg" x="316" y="160.5" width="30" height="21" rx="1.5"/>
  <rect class="cg" x="350" y="160.5" width="30" height="21" rx="1.5"/>
  <rect class="cg" x="384" y="160.5" width="30" height="21" rx="1.5"/>
  <rect class="cg" x="418" y="160.5" width="30" height="21" rx="1.5"/>
  <rect class="cg" x="452" y="160.5" width="30" height="21" rx="1.5"/>
  <rect class="cg" x="486" y="160.5" width="30" height="21" rx="1.5"/>

  <!-- idle annotation, pointing into the idle region at the grid's right edge -->
  <text class="ann2" x="534" y="86">idle — slot held until</text>
  <text class="ann2" x="534" y="98">the batch finishes</text>
  <path class="thin" d="M534,103 L523,111" marker-end="url(#agr)"/>

  <!-- queued request, locked out until the batch drains -->
  <rect class="chip" x="534" y="128" width="104" height="24" rx="2"/>
  <text class="chiptx" x="586" y="144" text-anchor="middle">R5 (queued)</text>
  <text class="ann2" x="586" y="168" text-anchor="middle">waits until t12</text>

  <!-- ===== divider ===== -->
  <line class="hair" x1="34" y1="208" x2="326" y2="208"/>
  <text class="vs" x="340" y="211.5" text-anchor="middle">vs</text>
  <line class="hair" x1="354" y1="208" x2="646" y2="208"/>

  <!-- ===== bottom panel: iteration-level scheduling ===== -->
  <text class="stg" x="34" y="236">ITERATION-LEVEL SCHEDULING<tspan class="subin" letter-spacing="0"> — the batch is re-formed every iteration</tspan></text>

  <!-- refill annotation at the R1 -> R5 boundary (x = 110 + 4*34 = 246) -->
  <text class="anng" x="254" y="254">finished → slot refilled on the next iteration</text>
  <path class="arrg" d="M246,258 L246,272" marker-end="url(#ag)"/>

  <text class="tick" x="127" y="268" text-anchor="middle">t1</text>
  <text class="tick" x="161" y="268" text-anchor="middle">t2</text>
  <text class="tick" x="195" y="268" text-anchor="middle">t3</text>
  <text class="tick" x="229" y="268" text-anchor="middle">t4</text>
  <text class="tick" x="263" y="268" text-anchor="middle">t5</text>
  <text class="tick" x="297" y="268" text-anchor="middle">t6</text>
  <text class="tick" x="331" y="268" text-anchor="middle">t7</text>
  <text class="tick" x="365" y="268" text-anchor="middle">t8</text>
  <text class="tick" x="399" y="268" text-anchor="middle">t9</text>
  <text class="tick" x="433" y="268" text-anchor="middle">t10</text>
  <text class="tick" x="467" y="268" text-anchor="middle">t11</text>
  <text class="tick" x="501" y="268" text-anchor="middle">t12</text>
  <text class="row" x="102" y="291" text-anchor="end">R1<tspan class="rown">→R5</tspan></text>
  <text class="row" x="102" y="317" text-anchor="end">R2<tspan class="rown">→R6</tspan></text>
  <text class="row" x="102" y="343" text-anchor="end">R3<tspan class="rown">→R7</tspan></text>
  <text class="row" x="102" y="369" text-anchor="end">R4</text>

  <rect class="cg" x="112" y="276.5" width="30" height="21" rx="1.5"/>
  <rect class="cg" x="146" y="276.5" width="30" height="21" rx="1.5"/>
  <rect class="cg" x="180" y="276.5" width="30" height="21" rx="1.5"/>
  <rect class="cg" x="214" y="276.5" width="30" height="21" rx="1.5"/>
  <rect class="cn" x="248" y="276.5" width="30" height="21" rx="1.5"/>
  <rect class="cn" x="282" y="276.5" width="30" height="21" rx="1.5"/>
  <rect class="cn" x="316" y="276.5" width="30" height="21" rx="1.5"/>
  <rect class="cn" x="350" y="276.5" width="30" height="21" rx="1.5"/>
  <rect class="cn" x="384" y="276.5" width="30" height="21" rx="1.5"/>
  <rect class="cn" x="418" y="276.5" width="30" height="21" rx="1.5"/>
  <rect class="cn" x="452" y="276.5" width="30" height="21" rx="1.5"/>
  <rect class="cn" x="486" y="276.5" width="30" height="21" rx="1.5"/>
  <rect class="cg" x="112" y="302.5" width="30" height="21" rx="1.5"/>
  <rect class="cg" x="146" y="302.5" width="30" height="21" rx="1.5"/>
  <rect class="cg" x="180" y="302.5" width="30" height="21" rx="1.5"/>
  <rect class="cg" x="214" y="302.5" width="30" height="21" rx="1.5"/>
  <rect class="cg" x="248" y="302.5" width="30" height="21" rx="1.5"/>
  <rect class="cg" x="282" y="302.5" width="30" height="21" rx="1.5"/>
  <rect class="cg" x="316" y="302.5" width="30" height="21" rx="1.5"/>
  <rect class="cn" x="350" y="302.5" width="30" height="21" rx="1.5"/>
  <rect class="cn" x="384" y="302.5" width="30" height="21" rx="1.5"/>
  <rect class="cn" x="418" y="302.5" width="30" height="21" rx="1.5"/>
  <rect class="cn" x="452" y="302.5" width="30" height="21" rx="1.5"/>
  <rect class="cn" x="486" y="302.5" width="30" height="21" rx="1.5"/>
  <rect class="cg" x="112" y="328.5" width="30" height="21" rx="1.5"/>
  <rect class="cg" x="146" y="328.5" width="30" height="21" rx="1.5"/>
  <rect class="cg" x="180" y="328.5" width="30" height="21" rx="1.5"/>
  <rect class="cg" x="214" y="328.5" width="30" height="21" rx="1.5"/>
  <rect class="cg" x="248" y="328.5" width="30" height="21" rx="1.5"/>
  <rect class="cg" x="282" y="328.5" width="30" height="21" rx="1.5"/>
  <rect class="cg" x="316" y="328.5" width="30" height="21" rx="1.5"/>
  <rect class="cg" x="350" y="328.5" width="30" height="21" rx="1.5"/>
  <rect class="cg" x="384" y="328.5" width="30" height="21" rx="1.5"/>
  <rect class="cn" x="418" y="328.5" width="30" height="21" rx="1.5"/>
  <rect class="cn" x="452" y="328.5" width="30" height="21" rx="1.5"/>
  <rect class="cn" x="486" y="328.5" width="30" height="21" rx="1.5"/>
  <rect class="cg" x="112" y="354.5" width="30" height="21" rx="1.5"/>
  <rect class="cg" x="146" y="354.5" width="30" height="21" rx="1.5"/>
  <rect class="cg" x="180" y="354.5" width="30" height="21" rx="1.5"/>
  <rect class="cg" x="214" y="354.5" width="30" height="21" rx="1.5"/>
  <rect class="cg" x="248" y="354.5" width="30" height="21" rx="1.5"/>
  <rect class="cg" x="282" y="354.5" width="30" height="21" rx="1.5"/>
  <rect class="cg" x="316" y="354.5" width="30" height="21" rx="1.5"/>
  <rect class="cg" x="350" y="354.5" width="30" height="21" rx="1.5"/>
  <rect class="cg" x="384" y="354.5" width="30" height="21" rx="1.5"/>
  <rect class="cg" x="418" y="354.5" width="30" height="21" rx="1.5"/>
  <rect class="cg" x="452" y="354.5" width="30" height="21" rx="1.5"/>
  <rect class="cg" x="486" y="354.5" width="30" height="21" rx="1.5"/>

  <text class="clbl" x="263" y="290.5" text-anchor="middle">R5</text>
  <text class="clbl" x="365" y="316.5" text-anchor="middle">R6</text>
  <text class="clbl" x="433" y="342.5" text-anchor="middle">R7</text>

  <!-- right-side note: the payoff -->
  <text class="anng" x="594" y="318" text-anchor="middle">no idle slots —</text>
  <text class="anng" x="594" y="332" text-anchor="middle">the batch stays full</text>

  <!-- footnote -->
  <text class="note" x="340" y="406" text-anchor="middle">Orca (OSDI '22): iteration-level scheduling — the scheduler runs one iteration, then re-forms the batch.</text>
</svg>
