<svg xmlns="http://www.w3.org/2000/svg" viewBox="0 0 680 366" role="img"
     aria-label="The KV cache as it grows over decode steps. After each decode step the cache is a row of per-token entries: step 1 holds one entry, step 2 holds two, and so on. Each step appends exactly one new entry (highlighted) and keeps all the earlier ones, and every step must read the entire row — so the work scales with sequence length and decode is limited by memory bandwidth, not compute.">
  <style>
    .bg    { fill:#ffffff; stroke:#e6e6e6; }
    .ey    { font:600 12px 'JetBrains Mono',ui-monospace,monospace; letter-spacing:1.5px; fill:#006b40; }
    .lbl   { font:600 12px 'JetBrains Mono',ui-monospace,monospace; fill:#5c6670; }
    .cell  { fill:#f4f6f5; stroke:#b9c4bf; }
    .new   { fill:#dff6ee; stroke:#006b40; stroke-width:1.5; }
    .cn    { font:600 12px 'JetBrains Mono',ui-monospace,monospace; fill:#14171a; }
    .cnn   { font:600 12px 'JetBrains Mono',ui-monospace,monospace; fill:#006b40; }
    .cap   { font:400 12px 'JetBrains Mono',ui-monospace,monospace; fill:#5c6670; }
    .read  { stroke:#006b40; stroke-width:1.2; fill:none; }
    .down  { stroke:#b9c4bf; stroke-width:1.2; fill:none; }
  </style>
  <defs>
    <marker id="rd" markerWidth="8" markerHeight="8" refX="6" refY="3" orient="auto"><path d="M0,0 L6,3 L0,6 Z" fill="#006b40"/></marker>
    <marker id="dn" markerWidth="7" markerHeight="7" refX="5" refY="2.5" orient="auto"><path d="M0,0 L5,2.5 L0,5 Z" fill="#b9c4bf"/></marker>
  </defs>

  <rect class="bg" x="1" y="1" width="678" height="364" rx="2"/>
  <text class="ey" x="34" y="32">KV CACHE — ONE ENTRY APPENDED PER TOKEN</text>

  <!-- step 1: 1 entry -->
  <text class="lbl" x="34" y="80">step 1</text>
  <rect class="new"  x="120" y="62" width="56" height="30" rx="2"/>
  <text class="cnn"  x="148" y="81" text-anchor="middle">1</text>
  <path class="down" d="M148,94 L148,104" marker-end="url(#dn)"/>

  <!-- step 2: 2 entries -->
  <text class="lbl" x="34" y="124">step 2</text>
  <rect class="cell" x="120" y="106" width="56" height="30" rx="2"/>
  <text class="cn"   x="148" y="125" text-anchor="middle">1</text>
  <rect class="new"  x="182" y="106" width="56" height="30" rx="2"/>
  <text class="cnn"  x="210" y="125" text-anchor="middle">2</text>
  <path class="down" d="M210,138 L210,148" marker-end="url(#dn)"/>

  <!-- step 3: 3 entries -->
  <text class="lbl" x="34" y="168">step 3</text>
  <rect class="cell" x="120" y="150" width="56" height="30" rx="2"/>
  <text class="cn"   x="148" y="169" text-anchor="middle">1</text>
  <rect class="cell" x="182" y="150" width="56" height="30" rx="2"/>
  <text class="cn"   x="210" y="169" text-anchor="middle">2</text>
  <rect class="new"  x="244" y="150" width="56" height="30" rx="2"/>
  <text class="cnn"  x="272" y="169" text-anchor="middle">3</text>
  <path class="down" d="M272,182 L272,192" marker-end="url(#dn)"/>

  <!-- step 4: 4 entries, with a read-all bracket -->
  <text class="lbl" x="34" y="212">step 4</text>
  <rect class="cell" x="120" y="194" width="56" height="30" rx="2"/>
  <text class="cn"   x="148" y="213" text-anchor="middle">1</text>
  <rect class="cell" x="182" y="194" width="56" height="30" rx="2"/>
  <text class="cn"   x="210" y="213" text-anchor="middle">2</text>
  <rect class="cell" x="244" y="194" width="56" height="30" rx="2"/>
  <text class="cn"   x="272" y="213" text-anchor="middle">3</text>
  <rect class="new"  x="306" y="194" width="56" height="30" rx="2"/>
  <text class="cnn"  x="334" y="213" text-anchor="middle">4</text>
  <!-- read-all span over step 4 -->
  <path class="read" d="M120,240 L362,240" marker-end="url(#rd)"/>
  <path class="read" d="M120,240 L120,234"/>
  <text class="cnn" x="372" y="244">read in full, every step</text>

  <!-- legend -->
  <rect class="new"  x="120" y="280" width="20" height="16" rx="2"/>
  <text class="cap"  x="148" y="293">appended this step</text>
  <rect class="cell" x="320" y="280" width="20" height="16" rx="2"/>
  <text class="cap"  x="348" y="293">already cached</text>

  <!-- caption -->
  <text class="cap" x="34" y="330">The row grows by one entry per token, and every step re-reads all of it —</text>
  <text class="cap" x="34" y="348">so memory bandwidth, not compute, sets the pace.</text>
</svg>
